<?xml version="1.0" encoding="utf-8"?>
<!-- Generator: Adobe Illustrator 25.2.3, SVG Export Plug-In . SVG Version: 6.00 Build 0)  -->
<svg version="1.1" id="Layer_1" xmlns="http://www.w3.org/2000/svg" xmlns:xlink="http://www.w3.org/1999/xlink" x="0px" y="0px"
	 viewBox="0 0 764 162" enable-background="new 0 0 764 162" xml:space="preserve">
<g>
	<path d="M762.7,63.7c-0.4,0.3-0.9,0.7-1.3,0.8c-7.3,1.3-14.6,2.6-21.9,3.8c-0.4,0.1-0.8,0.1-1.3,0.1c-0.1-1,0-1.9-0.2-2.8
		c-0.8-3.8-3.8-6.2-7.9-6.3c-8.3-0.3-14.9,3.1-20.2,9.2c-5.9,6.7-9.7,14.4-11.4,23.1c-0.4,2.3-0.4,4.8-0.2,7.1
		c0.4,3.3,2.5,5.4,5.6,6.3c5.6,1.6,11.3,2.1,17,0.4c5.8-1.7,9.9-7.8,10.8-12.5c-5.2,0-10.3,0-15.6,0c0.4-1.2,0.8-2.2,1.1-3.1
		c1.3-3.6,2.6-7.3,3.9-10.9c0.2-0.7,0.5-1,1.3-1c11.4,0,22.9,0,34.3,0c0.3,0,0.5,0.1,1,0.1c-0.2,0.5-0.3,0.9-0.5,1.3
		c-4,10-8,19.9-12,29.9c-0.3,0.7-0.9,1.4-1.5,1.7c-7.7,4.2-15.8,7-24.3,9c-5.6,1.4-11.4,2.2-17.2,2.1c-4.7-0.1-9.5-0.5-14.1-1.6
		c-6.4-1.6-12.3-7.7-13.4-15.3c-1-6.6,0.3-12.9,2.6-19.1c4.5-11.9,11.3-22.3,20.7-30.8c3.9-3.6,8.8-5.5,13.6-7.4
		c8.9-3.6,18.2-5,27.8-4.6c3.4,0.2,6.8,0.2,10.1,0.9c7.1,1.4,11.5,6.4,12.6,13.6c0.2,1.1,0.4,2.3,0.6,3.4
		C762.7,62,762.7,62.9,762.7,63.7z"/>
	<path d="M88.7,148.7c1.7,0.1,3.2,0.3,4.6,0.4c4.3,0.3,8.6,0.5,12.9,0.8c1.6,0.1,3,0.3,4.5,1.1c2.6,1.3,5.1,2.6,7.1,5
		c0.9,1.1,1.3,2.1,1.3,3.7c-2.1,0-4.1,0-6.2,0c-7.2,0.1-14.4,0.3-21.6,0.5c-4.3,0.1-8.7,0.3-13,0.4c-0.6,0-1.3-0.3-1.8-0.7
		c-3.5-3.5-6.9-7-10.3-10.5c-0.3-0.3-0.6-0.8-0.8-1.2c-5.8-12.1-11.6-24.2-17.3-36.3c-0.2-0.5-0.5-0.9-0.7-1.4
		c-1.8,0.9-1.9,1.2-1.1,2.8c3.1,6.4,6.2,12.8,9.4,19.3c0.2,0.5,0.4,0.9,0.7,1.6c-1.7,0.2-3.2,0.4-4.8,0.6
		c-5.4,0.6-10.9,1.1-16.3,1.7c-0.3,0-0.7,0.2-1,0.4c-3.5,2.2-7.1,4.4-9.5,7.9c-0.2,0.3-0.5,0.7-0.8,1c3.7,1.1,7.3,2.1,10.8,3.4
		c1.4,0.5,2.5,1.7,3.8,2.6c-0.8,1.5-1.7,2.2-3.3,2.2c-5.9,0.2-11.8,0.6-17.7,0.9c-4.2,0.2-8.4,0.5-12.6,0.4c-1.2,0-2.4-1.2-3.6-1.9
		c-0.1-0.1-0.1-0.4-0.1-0.6c0.4-5.4,0.7-10.9,1.1-16.3c0-0.5,0.2-0.9,0.4-1.4c3.4-7.2,6.9-14.4,10.3-21.6c0.3-0.6,0.7-1.1,1.3-1.6
		c2.6-2.2,5.3-4.3,8-6.6c0.4-0.4,0.6-1,0.9-1.6c-0.1-0.1-0.3-0.2-0.4-0.3c-3.2,2.4-6.3,4.8-9.7,7.3c-0.8-4.2-4-6.8-6-10
		c-0.2-0.3-0.3-0.9-0.2-1.3c0.9-2.5,1.9-5,2.9-7.5c0.2-0.6,0.7-1.1,1.1-1.6c1.6-1.9,3.2-3.8,4.7-5.7c0.4-0.5,0.7-1.2,0.7-1.8
		c0.2-5.6,0.4-11.2,0.6-16.9c0-1-0.4-1.5-1.3-2.1c-0.2,2-0.4,3.8-0.5,5.6c-0.3,4-0.7,8.1-1,12.1c0,0.3-0.2,0.6-0.4,0.8
		c-2.2,2.1-4.4,4.2-6.9,6.5c-0.4-1.7-0.8-3.2-1.2-4.8c-1.4-5.7-2.8-11.5-4.1-17.2c-0.2-0.7-0.2-1.4,0-2.1c0.7-3.9,1.4-7.8,2.2-11.7
		c0.1-0.7,0.6-1.3,1-1.9c4.5-7.2,10.6-13,16.5-18.9c1.3-1.3,2.6-2.5,3.8-3.9c1.1-1.2,2.3-2,4-2c1.1,0,2.1-0.3,3.5-0.5
		c-3,4.5-5.9,8.7-8.7,12.8c0.1,0.1,0.2,0.2,0.3,0.2c10.1-9.7,20.2-19.3,30.3-29c-0.1-0.1-0.1-0.2-0.2-0.3c-4.9,2.2-9.8,4.4-14.8,6.6
		c0-1.9-0.3-3.8,0.1-5.6c0.4-1.8,1-3.9,2.2-5.2c1.2-1.3,3.2-2.1,4.9-2.4c2.2-0.5,4.7-0.7,6.9-0.4c2,0.3,3.9,1.5,5.8,2.4
		c0.6,0.3,1.1,0.6,1.8,0.4c5.5-1.3,11-2.5,16.4-3.7c0.8-0.2,1.3-0.1,1.8,0.7C80,3.2,80.7,4,81.3,4.9c0.4,0.6,0.9,0.7,1.5,0.4
		c0.4-0.2,0.8-0.3,1.2-0.5c1.8-0.9,3.5-1.4,5.6-1.1c3.2,0.5,6.5,0.7,10,1c-1.2,0.7-2.1,1.2-3.1,1.8c0,0.1,0,0.2,0,0.3
		c0.9,0.2,1.7,0.3,2.6,0.5c0.3,0.1,0.7,0.2,0.8,0.4c0.3,0.5-0.4,3.3-1,3.7c0,0-0.1,0-0.1,0.1c-1.7,1.5-3.6,2.1-5.9,2.1
		c-1.8-0.1-3.6,0.5-5.4,0.8c-0.3,0-0.7,0.2-0.7,0.3c-0.3,1.5-1,3.2-0.6,4.5c0.9,2.5,3.4,3.1,5.8,3.3c0.3,0,0.7-0.2,1-0.4
		c0.7-0.4,1.4-0.9,2.3-1.4c0.2,2,0.3,3.8-0.5,5.6c-0.1,0.1-0.2,0.3-0.3,0.4c-1.8,0.7-3.3,2.1-5.5,1.1c-1-0.5-2.2-0.6-3.5-1
		c0.6,1.3,1,2.4,1.6,3.6c-1.2,0.5-2.4,1.1-3.5,1.6c-2.8,1.2-2.8,1.2-4.9-0.9c-1.5-1.5-3-3-4.5-4.5c-0.1-0.1-0.2-0.1-0.5-0.3
		c0.1,0.4,0.1,0.7,0.2,0.9c1.2,2.8,2.4,5.6,3.8,8.4c0.2,0.5,0.9,1.1,1.4,1.2c5,1.5,10,2.9,15,4.5c1,0.3,1.9,0.8,2.7,1.5
		c2.8,2.4,5.6,4.7,8.2,7.3c3.4,3.4,6.5,7.1,9.8,10.7c1,1.1,1.8,2.2,2.9,3.2c1.2,1.1,1.8,2.5,2,4.1c0.1,0.8,0.4,1.6,0.4,2.3
		c0,0.6-0.2,1.1-0.3,1.7c0,0,0,0.1-0.1,0.1c-1.2,2.7-3.1,4.4-6,5.2c-1.3,0.3-2.6,1-4.1,1.6c0.1-1.1,0.2-2.1,0.2-3.2
		c-1.3,0.3-2.5,0.5-3.9,0.8c0.6-1.1,1.1-2,1.7-3.1c-1.3-0.2-2.4-0.3-3.8-0.4c1-0.8,1.8-1.5,2.7-2.2c-1-0.6-1.9-1-2.7-1.5
		c-3-2.2-6.5-2.4-9.9-2.9C89,65.3,84,65.8,79,66c-0.4,0-1-0.5-1.4-0.9c-4.4-5.4-8.7-10.9-13.1-16.4c-0.5-0.7-1.1-1-2.1-0.6
		c0.2,0.3,0.4,0.7,0.6,1c4.3,5.5,8.7,11,12.9,16.5c1,1.3,1.8,2.7,2.5,4.2c1.5,3.2,2.8,6.5,4.2,9.8c0.3,0.7,0.5,1.6,0.4,2.4
		c-0.4,5.8-0.8,11.5-1.2,17.3c-0.2,2.3-0.4,4.6-0.6,7.1c-1.5-3.6-3-7.1-4.4-10.7c-1.4,0.8-1.6,1.4-1.2,2.7c4.9,14,9.9,28,14.7,42.1
		c0.3,0.8,0.2,1.9,0,2.7C90,145,89.4,146.8,88.7,148.7z M79.3,10.5c0-0.1,0.1-0.2,0.1-0.3c-1-0.6-2.1-1.5-3.2-1.5
		c-0.8-0.1-1.7,1-2.6,1.5c0,0.1,0.1,0.2,0.1,0.3C75.6,10.5,77.5,10.5,79.3,10.5z"/>
	<path d="M155.8,120.9c1.1-2.6,2-4.9,3-7.3c9.2-22.4,18.4-44.7,27.6-67.1c0.9-2.1,0.9-2.1,3.1-2.1c15.4,0,30.8-0.1,46.2,0
		c3.8,0,7.3,1.5,10.1,4.2c3.2,3.1,3.5,7,2.5,11c-2.6,10.4-9,17.1-19.4,19.9c-0.3,0.1-0.5,0.2-1.1,0.4c0.7,0.3,1.1,0.5,1.6,0.7
		c4,1.8,7.2,4.4,8.4,8.9c0.6,2.6,0.4,5.1-0.5,7.5c-4.2,11-11.5,19-23,22.5c-2.9,0.9-6,1.3-9.1,1.3c-16,0.1-31.9,0.1-47.9,0.1
		C156.9,120.9,156.5,120.9,155.8,120.9z M187.2,104.9c0.3,0.1,0.6,0.1,0.8,0.1c5.5,0,11,0,16.5,0c0.3,0,0.6-0.1,0.9-0.2
		c3.8-1.7,6.7-4.3,8.2-8.3c1.5-4,0-6.7-4.3-7.5c-0.4-0.1-0.9-0.1-1.3-0.1c-4.5,0-9,0-13.5,0c-0.9,0-1.3,0.3-1.7,1.1
		c-1.7,4.5-3.5,9.1-5.3,13.6C187.4,104.1,187.3,104.5,187.2,104.9z M199,74.6c0.7,0,1.1,0,1.5,0c4.5,0,9,0.1,13.4,0
		c1.2,0,2.4-0.3,3.4-0.8c3.7-1.9,5.2-5.3,5.6-9.2c0.4-3.6-2.4-5.4-5-5.3c-3.9,0.2-7.8,0.1-11.7,0c-1,0-1.5,0.4-1.8,1.3
		c-1.5,3.9-3,7.7-4.5,11.6C199.6,72.9,199.3,73.6,199,74.6z"/>
	<path d="M548.4,89.6c-0.7,0-1.1-0.1-1.5-0.1c-7.9,0-15.8,0-23.7,0c-1,0-1.5,0.4-1.8,1.3c-3.6,9.6-7.3,19.1-11,28.7
		c-0.4,1.1-1,1.5-2.2,1.5c-6.7-0.1-13.4,0-20.1,0c-0.4,0-0.8,0-1.3,0c0.1-0.5,0.2-0.8,0.4-1.2c9.9-24.7,19.8-49.5,29.7-74.2
		c0.2-0.6,0.4-1.1,1.3-1.1c7.3,0,14.6,0,21.8,0c0.1,0,0.2,0,0.6,0.1c-3.6,8.9-7.2,17.8-10.8,26.9c0.6,0,1,0.1,1.4,0.1
		c7.8,0,15.6,0,23.4,0c1,0,1.5-0.4,1.8-1.3c3.3-8.1,6.8-16.3,10.1-24.4c0.5-1.1,1-1.4,2.2-1.4c6.7,0.1,13.4,0,20,0
		c0.4,0,0.9,0,1.5,0c-0.2,0.6-0.3,1-0.5,1.4c-7.2,18.3-14.4,36.6-21.6,54.8c-2.5,6.3-5,12.7-7.5,19c-0.4,1-0.9,1.3-1.9,1.3
		c-7,0-13.9,0-20.9,0c-0.4,0-0.8,0-1.4,0C540.4,110.4,544.4,100.1,548.4,89.6z"/>
	<path d="M403.2,120.8c0.5-1.2,0.9-2.3,1.3-3.4c9.7-24,19.5-47.9,29.2-71.9c0.4-0.9,0.8-1.2,1.8-1.2c14.7,0,29.4-0.1,44.1,0.1
		c4.6,0,8.9,1.3,12.6,4.3c3.4,2.8,4.5,6.6,3.5,10.8c-3.1,12.7-10.1,22.1-23,26.5c-1.8,0.6-3.6,0.9-5.4,1.4c0,0.1,0,0.2,0,0.2
		c4.5,2.4,6.8,6.5,8,11.3c0.6,2.5,0.8,5.2,1,7.8c0.3,4.2,0.3,8.4,0.6,12.7c0.1,1.1-0.3,1.3-1.3,1.3c-7.4,0-14.9,0-22.3,0
		c-0.9,0-1.3-0.3-1.4-1.2c-0.6-5-1.2-10-1.8-14.9c-0.3-2.8-0.6-5.5-1-8.3c-0.3-2.7-1.9-4.6-4.3-5.4c-1.7-0.6-3.6-0.6-5.4-0.8
		c-0.3,0-0.8,0.5-1,0.9c-2,5-4,10.1-6,15.1c-1.8,4.6-3.7,9.3-5.5,13.9c-0.2,0.6-0.5,1-1.3,1c-7.2,0-14.4,0-21.6,0
		C403.7,120.9,403.6,120.9,403.2,120.8z M444.7,75.8c0.5,0.1,0.7,0.2,1,0.2c4.4,0,8.8,0.3,13.2-0.1c5.3-0.4,9.4-3.2,11.9-7.9
		c0.6-1.2,0.9-2.9,0.7-4.2c-0.3-2.4-2.9-4.2-5.8-4.2c-4.5,0-9,0-13.5,0c-0.7,0-1.1,0.2-1.3,0.9c-0.7,1.9-1.5,3.7-2.2,5.5
		C447.4,69.2,446.1,72.4,444.7,75.8z"/>
	<path d="M629.7,44.4c-1.3,3.3-2.5,6.3-3.8,9.3c-4.9,12.2-9.9,24.4-14.8,36.6c-1,2.5-1.7,5-1.2,7.7c0.8,4.8,4,7.3,8.9,7.6
		c9,0.4,15.5-5.4,18.3-12.5c6.2-15.7,12.3-31.5,18.4-47.2c0.4-1,0.8-1.4,2-1.4c6.9,0.1,13.8,0,20.8,0c0.4,0,0.9,0,1.5,0
		c-0.2,0.7-0.4,1.1-0.6,1.6c-7.2,17.2-14.3,34.5-21.6,51.6c-3.8,8.9-10.1,15.2-18.9,19.2c-3.7,1.7-7.4,3.6-11.6,4.1
		c-3.6,0.4-7.3,0.8-11,0.9c-4.6,0.1-9.2-0.1-13.7-0.3c-2.2-0.1-4.5-0.3-6.6-0.8c-4.3-1-6.9-3.9-8.5-7.9c-2.9-7.2-2.5-14.4,0.4-21.6
		c6.1-15.3,12.2-30.5,18.3-45.8c0.4-0.9,0.8-1.2,1.7-1.2c7,0,13.9,0,20.9,0C628.7,44.4,629.1,44.4,629.7,44.4z"/>
	<path d="M241,120.9c1.2-3,2.2-5.7,3.3-8.5c8.8-22.2,17.6-44.4,26.3-66.6c0.4-1,0.9-1.4,2-1.4c20.7,0,41.4,0,62.1,0
		c0.4,0,0.9,0,1.5,0c-0.5,1.2-0.9,2.2-1.4,3.2c-1.7,3.9-3.5,7.8-5.2,11.7c-0.4,0.9-0.8,1.2-1.9,1.2c-12.7,0-25.4,0-38,0
		c-1,0-1.5,0.3-1.9,1.3c-1.3,3.4-2.6,6.7-4,10c-0.2,0.4-0.2,0.8-0.4,1.4c12.6,0,24.9,0,37.6,0c-0.2,0.5-0.3,0.9-0.4,1.2
		c-1.7,4.3-3.5,8.6-5.1,12.9c-0.3,0.9-0.8,1.2-1.8,1.2c-11.6,0-23.1,0-34.7,0c-1.2,0-1.8,0.3-2.3,1.5c-1.5,4.1-3.2,8.2-4.8,12.2
		c-0.2,0.4-0.3,0.9-0.6,1.6c13.8,0.1,27.3,0.3,41,0.4c-0.1,0.3-0.1,0.6-0.3,0.9c-2,5-4,9.9-6,14.8c-0.3,0.7-0.6,1-1.5,1
		c-21,0-41.9,0-62.9,0C241.7,120.9,241.4,120.9,241,120.9z"/>
	<path d="M311,120.9c1.3-1.8,2.5-3.3,3.7-4.8c17.2-22.2,34.3-44.3,51.5-66.5c1.1-1.4,2.2-2.8,3.3-4.3c0.5-0.6,1-0.9,1.8-0.9
		c7.4,0,14.7,0,22.1,0c1,0,1.3,0.3,1.3,1.3c0,24.6,0,49.3,0,73.9c0,1.1-0.4,1.3-1.4,1.3c-7.2,0-14.5,0-21.7,0
		c-1.1,0-1.3-0.4-1.3-1.4c0.1-3.4,0-6.8,0-10.2c0-1-0.2-1.4-1.4-1.4c-8.2,0.1-16.4,0-24.6,0c-0.8,0-1.3,0.3-1.7,1
		c-2.3,3.7-4.7,7.4-7.1,11.1c-0.3,0.4-0.8,0.9-1.2,0.9C326.6,120.9,319,120.9,311,120.9z M375.2,64.4c-0.1,0-0.2-0.1-0.3-0.1
		c-7.1,9.4-14.1,18.8-21.4,28.4c0.7,0.1,1,0.1,1.4,0.1c6.4,0,12.7,0,19.1,0c1.1,0,1.4-0.4,1.4-1.4c0-8.6,0-17.2,0-25.9
		C375.3,65.1,375.2,64.8,375.2,64.4z"/>
</g>
</svg>
