<svg version="1.1" id="Layer_1" xmlns="http://www.w3.org/2000/svg" xmlns:xlink="http://www.w3.org/1999/xlink" x="0px" y="0px"
	 viewBox="0 0 88.7 130" enable-background="new 0 0 88.7 130" xml:space="preserve">
<g>
	<path d="M0,129.6c2.5-7,5.1-14,7.4-21c2.6-7.8,4.9-15.8,7.5-23.6C25.6,52.9,44.1,26.4,71.4,6.3c4.7-3.4,9.8-6.1,17.3-6.3
		c-1,8.6-1.7,16.6-3,24.5c-1.6,9.7-3.8,19.2-5.7,28.9c-0.7,3.5-2.1,6-5.6,7.6c-3.1,1.4-5.8,3.5-8.7,5.3c0.2,0.4,0.4,0.9,0.6,1.3
		c3.4-0.9,6.7-1.8,10.7-2.9C73.5,79.3,69,92.3,51.1,94.3c0.3,0.5,0.7,1,1,1.5c2.7,0.8,5.4,1.5,8.3,2.3c-10.2,12.5-22.9,16-37.3,10.3
		C35.4,85.9,47.7,63.3,60,40.8c-0.5-0.3-1-0.6-1.5-0.9C35.5,67.5,19.3,99.3,1.3,130C0.9,129.9,0.4,129.7,0,129.6z"/>
</g>
</svg>
