<?xml version="1.0" encoding="utf-8"?>
<!-- Generator: Adobe Illustrator 26.0.3, SVG Export Plug-In . SVG Version: 6.00 Build 0)  -->
<svg version="1.1" id="Layer_1" xmlns="http://www.w3.org/2000/svg" xmlns:xlink="http://www.w3.org/1999/xlink" x="0px" y="0px"
	 viewBox="0 0 67.1 149.2" enable-background="new 0 0 67.1 149.2" xml:space="preserve">
<g>
	<path d="M30,0c2.7,0,5.3,0,8,0c1,0.6,2,1.2,3,1.7c8.5,4.2,13.1,10.6,13.1,20.5C54,41.6,54.5,61,54.6,80.5c0,4.2,0.9,7.6,3.8,10.9
		c6.4,7.1,9.2,15.6,8.7,25.2c-0.8,16-13.4,30.3-28.9,32.3c-16.5,2.1-31.1-7.2-36.2-23.2c-0.6-1.9-1.3-3.8-1.9-5.6c0-4,0-8,0-12
		c0.6-1.5,1.1-3.1,1.8-4.6c2.5-4.5,4.7-9.2,7.7-13.2c2.1-2.8,3.3-5.5,3.3-9c-0.1-18.5,0.2-36.9-0.1-55.4c-0.2-13,4.1-21.2,16.9-25.5
		C29.8,0.3,29.9,0.1,30,0z M46.4,55.2c0-8.8,0-17.7,0-26.5c0-3,0.3-6-0.2-8.9c-1.1-7-6.7-11.7-13-11.5C27,8.5,21.6,13.8,20.9,20.6
		c-0.4,3.8-0.7,7.6-0.6,11.5c0.1,16.5,0.2,33,0.4,49.4c0.1,5.8-1.1,10.6-5.7,15.1c-8.2,8-9,18.2-4.8,28.7
		c4.1,10.2,12.2,15.1,23,15.6c10.4,0.5,20.2-6.2,24.2-16.1c4.3-10.6,1.8-22.7-6.9-30.1c-3.2-2.7-4.2-5.6-4.2-9.5
		C46.5,75.2,46.4,65.2,46.4,55.2z"/>
	<path d="M37.9,59.9c0,10.6,0.1,21.3,0,31.9c0,3.5,1,5.8,4.2,7.7c7,4.1,9.1,10.8,7.9,18.5c-1.2,7.4-6.3,11.5-13,13.7
		c-5.7,1.9-14-2-17.6-7.7c-5.2-8.4-2.5-20,6-24.8c3-1.7,3.8-3.6,3.8-6.7c-0.1-20.5,0-40.9,0-61.4c0-1.5,0-3,0-4.5
		c0.2-4.2,3.2-6.1,7-4.4c0.7,0.3,1.3,1.4,1.5,2.3c0.3,1.3,0.2,2.6,0.2,4C37.9,38.9,37.9,49.4,37.9,59.9z"/>
</g>
</svg>
