<?xml version="1.0" encoding="UTF-8"?><svg id="a" xmlns="http://www.w3.org/2000/svg" viewBox="0 0 1288 2512"><defs><style>.c{fill:#d2d2d2;}.d{fill:#f26e22;}</style></defs><path class="c" d="M1232.7,1273.32c-9.43-11.49-17.97-23.7-27.29-35.28-7.04-8.75-10.42-20.16-21-26.43-7.79-4.61-14.15-11.63-21.93-16.27-4.99-2.97-10.14-5.69-15.33-8.34-6.44-3.28-12.94-6.46-19.31-9.88-1.88-1.01-3.81-3.05-4.47-5.02-4.17-12.52-8.05-25.13-11.9-37.75-.49-1.6-.98-3.19-1.48-4.78-6.84-22.13-14.14-44.14-19.91-66.54-6.62-25.72-14.62-51.17-17.02-77.91-1.39-15.45-5.03-30.69-6.97-46.11-2.97-23.54-6.31-46.93-16.31-68.77-6-13.09-10.94-26.8-18.23-39.12-7.63-12.88-17.06-24.8-26.53-36.46-9.1-11.19-15.42-23.59-18.07-37.5-2.97-15.56-4.31-31.42-6.8-47.08-1.89-11.88-3.19-24.09-7.02-35.39-6.31-18.62-9.02-37.31-6.08-56.66,2.83-18.62,4.85-37.27,3.95-56.11-.9-18.73-4.79-36.92-11.5-54.39-7.43-19.36-18.08-36.91-31.96-52.35-12.66-14.09-27.94-25-45.01-32.87-13.2-6.09-27.28-10.09-41.99-11.15-5.66-.41-11.32-1.55-16.95-1.37-7.55,.23-15.07,1.47-22.62,2.15-1.1,.1-2.36-.27-3.37-.77-11.24-5.55-22.51-11.05-33.65-16.78-16.77-8.62-32.47-18.87-45.59-32.52-4.74-4.93-11-9.48-9.45-18.08,.76-4.21,1.18-8.59,.97-12.85-.73-14.54-.15-28.95,2.94-43.21,1.99-9.2,5.63-18.01,5.36-27.75-.17-6.05,2.57-10.18,9.13-12.81,7.36-2.95,11.91-9.65,13.44-17.86,1.36-7.28,2.9-14.54,4.14-21.84,1.43-8.47,3.46-16.96,3.71-25.48,.31-10.99-4.54-17.74-12.56-18.74-4.58-.57-4.73-2.92-4.85-6.37-.38-11.42-.76-22.86-1.5-34.26-.84-12.98-4.29-25.43-8.71-37.59-1.49-4.11-3.02-8.41-5.5-11.93-17.06-24.18-40.69-38.13-69.93-40.46-19.38-1.55-39.06-1.7-57.87,6.31-26.29,11.2-45.13,28.49-52.53,57.09-4.38,16.95-6.1,34.1-6.71,51.46-.17,4.78-.03,9.58-.03,14.61-10.49,.53-15.88,6.03-16.34,15.72-.31,6.5-.17,13.15,.81,19.57,1.26,8.28,4.54,16.34,5.18,24.62,1,13,6.34,22.33,18.45,27.29,2.91,1.2,4.04,2.9,4.35,5.76,.58,5.41,.95,10.88,2.02,16.2,2.2,10.99,4.92,21.88,7.18,32.86,.69,3.35,.69,6.87,.74,10.31,.13,9.75,.28,19.5,.06,29.24-.07,3.32-.15,7.57-2.08,9.76-6.35,7.17-13.11,14.11-20.51,20.17-17.16,14.05-37.07,23.6-57.01,32.94-4.93,2.31-9.6,5.42-15.76,4.93-10.24-.82-20.56-.87-30.84-.98-4.12-.05-8.34,.2-12.37,1-21.4,4.28-40.94,12.28-58.98,25.23-21.06,15.13-35.86,34.95-47.14,57.41-9.32,18.56-14.71,38.7-16.71,59.59-2.32,24.18,1.38,47.98,3.82,71.89,1.02,9.97,2.02,20.11-1.09,30.06-2.7,8.65-5.6,17.29-7.48,26.14-2.61,12.25-4.63,24.65-6.37,37.06-1.76,12.53-1.78,25.2-4.83,37.69-4.35,17.83-13.97,32.44-24.77,46.64-7.2,9.48-15.17,18.55-21.06,28.8-6.7,11.67-11.66,24.37-17.03,36.78-3.39,7.85-6.72,15.82-9.01,24.04-2.53,9.06-4.16,18.42-5.62,27.74-2.71,17.3-4.94,34.67-7.52,51.99-1.92,12.92-3.53,25.92-6.23,38.68-3.74,17.67-8.03,35.24-12.72,52.68-3.89,14.47-8.8,28.66-13.1,43.03-1.83,6.12-3.63,12.24-5.43,18.36-4.07,13.85-8.11,27.71-12.3,41.52-1,3.29-2.49,6.87-4.87,9.18-2.34,2.27-6.14,2.98-9.19,4.58-.23,.12-.46,.24-.69,.36-9.24,4.83-18.7,9.32-27.5,14.86-7.53,4.74-13.94,11.25-21.39,16.13-4.56,2.99-8.16,6.42-10.89,10.98-11.18,18.67-24.18,35.99-38.59,52.28-4.64,5.25-5.67,12.9-2.48,17.85,4.85,7.52,13.6,11.97,20.29,9.08,13.4-5.8,25.42-13.53,33.01-26.75,2.64-4.6,6.11-8.71,9.2-13.05,.64,.34,1.28,.67,1.92,1.01-1.42,5.3-2.6,10.67-4.3,15.87-3.77,11.58-6.62,23.57-14.21,33.55-12.34,16.24-19.67,35.05-27.16,53.73-2.48,6.19-3.13,12.82-1.02,19.41,2.62,8.21,12.1,11.66,19.68,7.7,9.02-4.7,14.41-12.45,19.18-20.93,3.95-7.03,8.06-13.97,12.1-20.95,.52,.27,1.04,.55,1.56,.82-.88,2.56-1.84,5.1-2.63,7.69-4.17,13.7-8.69,27.32-12.24,41.18-1.3,5.07-2.04,11.57,.03,15.97,5.04,10.7,19.56,15.88,29.61,3.03,4.98-6.37,7.87-13.61,10.86-20.95,4.48-10.98,9.45-21.77,14.21-32.63,1,1.26,1.18,2.27,.98,3.2-2.57,11.57-5.28,23.11-7.74,34.71-.71,3.37-1.37,6.96-.93,10.31,.76,5.8,1.56,12.07,7.28,15.45,9.73,5.75,21.4,1,24.89-9.87,4.69-14.64,9.48-29.26,13.97-43.97,1.93-6.33,3.21-12.87,4.78-19.31,1.63,3.98,2.4,7.97,2.78,12.01,.8,8.54,1.02,17.15,2.23,25.63,.74,5.15,5.98,8.67,11.05,8.79,9.24,.2,18.07-8.15,18.55-18.14,.94-19.26,1.61-38.54,2.32-57.81,.38-10.37,.2-20.61,3.98-30.74,4.37-11.72,6.55-24.25,10.85-36,5.4-14.76,7.86-29.99,9.75-45.33,.95-7.69,1.75-15.41,2.7-23.1,.85-6.87-.19-14.08,1.36-20.74,1.44-6.21,3-12.4,4.68-18.55,2.21-8.12,4.62-16.2,7.26-24.18,4.62-13.97,10.13-27.68,15.74-41.3,4.65-11.28,9.46-22.57,15.23-33.29,6.25-11.61,13.93-22.44,20.57-33.85,5.33-9.16,10.29-18.57,14.97-28.08,7.66-15.56,15.81-30.96,22.2-47.05,6.49-16.33,12.46-33.13,16.11-50.26,2.8-13.12,1.64-27.08,2.22-40.66,.08-1.88-.45-3.96,.16-5.62,4.33-11.72,8.88-23.35,13.39-35,6.7-17.33,13.1-34.79,20.27-51.93,4.07-9.71,9.44-18.86,14.87-29.56,1.15,3.69,1.98,6.05,2.63,8.46,6.07,22.41,12.36,44.76,18.06,67.26,4.34,17.11,9.8,33.98,8.74,52.16-.74,12.54,.28,25.17,.33,37.76,.02,3.97,.06,8.11-.95,11.89-5.35,19.94-10.25,39.94-11.28,60.68-.16,3.28-1.2,6.65-.73,9.81,2.25,14.91,2.1,29.78-.36,44.58-2.72,16.33-5.86,32.59-8.95,48.86-1.53,8.07-3.44,16.07-5.05,24.13-3.45,17.29-7.17,34.53-10.11,51.91-1.99,11.79-2.62,23.81-4.28,35.67-1.82,13.01-4.2,25.94-6.2,38.92-1.82,11.77-2.48,23.81-5.39,35.29-4.57,18.04-4.8,36.41-5.55,54.68-.87,20.96-.35,41.99-.12,62.99,.08,7.75,.74,15.53,1.71,23.22,1.21,9.6,3.83,19.07,4.4,28.69,1.13,18.91,1.1,37.88,1.88,56.81,.48,11.78,.87,23.64,2.57,35.28,2.19,15.03,5.45,29.92,8.64,44.79,2.55,11.88,5.55,23.67,8.65,35.41,1.01,3.84,3.35,7.33,4.45,11.16,3.83,13.35,8.6,26.59,6.59,40.89-.07,.47,.21,.98,.19,1.47-.1,3.26,.19,6.6-.43,9.77-1.34,6.79-4.03,13.42-4.6,20.25-1.25,15.09-1.92,30.25-2.06,45.39-.09,9.88,1.4,19.75,1.8,29.65,.51,12.47-1.21,24.67-3.69,36.95-2.55,12.63-3.52,25.59-5.06,38.42-.06,.53-.12,1.06-.19,1.59-.47,3.76-.45,7.62-1.31,11.27-4.08,17.25-5.51,34.81-5.74,52.42-.21,15.43,.15,30.91,1.11,46.32,1.06,16.82,2.69,33.64,4.84,50.36,1.76,13.71,4.67,27.27,7.04,40.9,1.55,8.92,2.89,17.87,4.57,26.76,3.1,16.37,6.83,32.63,9.45,49.07,2.91,18.19,4.81,36.54,7.27,54.81,1.4,10.38,3.1,20.74,4.56,31.11,1.04,7.39,1.96,14.78,2.55,22.21,.92,11.62-.28,23.5-1.57,35.16-1.14,10.31-4.16,20.41-5.53,30.71-1.47,11.05,2.02,21.42,5.57,31.82,1.4,4.09,1.56,9.53,.04,13.48-2.84,7.34-7.06,14.21-11.24,20.94-2.45,3.95-5.59,7.62-9.01,10.79-10.86,10.07-20.32,21.17-23.94,35.81-1.72,6.96-1.42,14.44-1.95,21.68-.14,1.9-.4,3.97,.15,5.72,3.15,10.02,10.98,15.53,19.88,19.84,1.89,.92,3.92,1.7,5.97,2.12,5.01,1.02,10.07,1.77,15.1,2.67,2.59,.46,5.2,.89,7.74,1.56,3.07,.8,6.51,1.22,9.04,2.9,6.44,4.28,13.29,4.29,19.84,1.78,4.49-1.73,7.29-2.32,11.53,1.09,7.02,5.67,22.73,3.91,31.52-1.7,10.59-6.75,17.93-16.25,23.23-27.22,3.14-6.49,8.23-12.7,6.58-20.77-1.17-5.72-2.26-11.51-4.05-17.05-1.33-4.12-5.17-7.87-5.23-11.83-.06-4.06,3.52-8.04,4.8-12.27,2.98-9.82,5.75-19.83,4.51-30.21-1.05-8.78-1.36-17.22,1.13-25.95,2.19-7.67,3.04-15.77,3.85-23.75,.53-5.28,1.11-11.02-.38-15.93-2.88-9.43-6.71-18.67-11.07-27.54-6.35-12.94-5.04-27.48-9.43-40.76-.2-.6-.07-1.33,0-1.99,.1-1.1,.2-2.21,.3-3.31,1.16-12.84,2.07-25.72,3.8-38.48,2.38-17.61,4.94-35.25,8.57-52.64,3.05-14.6,7.76-28.86,11.73-43.27,.88-3.18,1.03-6.87,2.8-9.44,5.14-7.46,6.99-15.77,8.57-24.47,4.49-24.86,5.11-49.91,4.45-75.04-.22-8.44-1.09-16.89-2.11-25.28-1.39-11.37-3.11-22.7-4.88-34.02-1.22-7.85-2.74-15.66-4.16-23.48-1.67-9.18-4.17-18.29-4.9-27.54-.29-3.65-.41-7.3-.38-10.94,.09-12.18,1.88-24.27,4.93-36.14,2.21-8.59,5.53-16.89,8.19-25.38,3.29-10.48,6.27-21.06,9.64-31.51,2.57-7.96,4.39-15.82,2.57-24.32-1.22-5.7-1.69-11.6-2-17.44-.11-2.22,1.63-4.48,1.78-6.77,1-15.69,1.06-31.38,6.94-46.47,6.56-16.83,1.91-35.21,6.06-52.5,1.06-4.4,.87-9.1,1.8-13.54,3.71-17.82,7.74-35.57,11.45-53.39,3.09-14.83,5.9-29.72,8.85-44.58,3.39-17.09,6.89-34.15,10.18-51.26,1.77-9.2,3.32-18.44,4.8-27.7,1.14-7.12,2.49-14.25,2.89-21.42,.5-8.97,.38-18,.04-26.99-.31-8.42-1.51-16.81-1.85-25.23-.33-8.27-.07-16.56-.07-25.38,1.52,0,3.71-.3,5.75,.13,1.04,.22,2.47,1.68,2.56,2.7,.27,2.79,.05,5.65-.19,8.47-.53,6.26-1.54,12.49-1.72,18.76-.52,18.13-.74,36.27-1.03,54.4-.03,1.65,.13,3.32,.44,4.94,2.87,14.98,5.83,29.95,8.69,44.93,3.56,18.68,6.83,37.43,10.63,56.06,4.39,21.52,9.34,42.92,13.83,64.42,2.92,14,6.87,27.99,7.81,42.16,1.15,17.36,2.01,34.35,6.87,51.38,4.24,14.84,4.67,30.78,6.72,46.24,.12,.93-.27,1.94-.48,2.9-.43,2.05-1.09,4.08-1.3,6.16-.45,4.43-.95,8.89-.9,13.33,.05,4.85-.08,9.91,1.24,14.49,3.12,10.88,7.16,21.5,10.62,32.29,3.47,10.81,7.38,21.55,9.87,32.59,2.52,11.16,4.12,22.4,4.23,33.67,.1,9.25-.8,18.53-3.03,27.81-1.26,5.22-3.08,10.32-3.99,15.6-2.06,11.98-4.01,24-5.46,36.06-1.83,15.28-4.02,30.61-4.4,45.96-.42,17.06,.48,34.22,1.85,51.25,.87,10.82,3.16,21.6,5.74,32.17,1.58,6.46,5.43,12.34,7.34,18.76,4.43,14.84,8.62,29.78,12.28,44.83,1.99,8.17,2.06,16.82,4.14,24.97,4.35,17.08,6.56,34.38,7.26,51.94,.08,2.09,.66,4.16,.71,6.24,.06,3,.16,6.01,.22,9.02,.07,3.78,.08,7.56-.15,11.32-.2,3.34-2.75,6.59-2.72,9.87,.13,14.37-6.89,26.37-11.92,39.1-2.94,7.44-6.35,15.38-6.38,23.1-.04,10.41,2.05,21.11,4.98,31.17,2.09,7.18,1.68,14.02,1.6,21.07-.02,1.95-.81,3.89-.77,5.83,.29,13.02,2.24,25.66,8.5,37.38,.78,1.47,.68,4.05-.08,5.59-6.35,12.94-11.74,25.7-4.86,40.43,7.5,16.05,16.55,30.7,33.99,37.1,8.45,3.11,17.89,3.51,25.37-3.16,2.81-2.51,4.65-2.28,7.31-.84,5.94,3.21,13.07,4.2,18.23,1.05,6.59-4.02,13.68-4.15,20.46-6.24,2.07-.64,4.13-1.33,6.25-1.76,2.43-.49,5.01-.41,7.34-1.14,4.17-1.3,8.25-2.94,12.3-4.6,1.18-.48,2.03-1.86,3.21-2.2,8.24-2.37,10.93-9.99,11.92-16.38,1.28-8.26,.22-17.27-1.68-25.54-3.42-14.9-12.92-26.25-24.33-36.07-1.94-1.67-4.05-3.41-5.32-5.57-4.71-8.01-8.77-16.43-13.74-24.27-3.29-5.2-3.15-10.62-.94-15.24,9.54-19.96,4.63-39.87,1.23-59.99-1.75-10.39-3.3-20.98-3.23-31.47,.07-9.53,2.53-19.03,3.75-28.57,0-.07,.02-.13,.03-.2,2.11-16.82,3.8-33.69,6.15-50.47,2.38-17.05,5.16-34.04,8.09-51,3.32-19.22,7.07-38.36,10.53-57.55,2.67-14.77,5.65-29.5,7.64-44.36,2.47-18.52,5.02-37.11,5.77-55.75,.79-19.73,.25-39.6-1.13-59.31-1.01-14.35-4.49-28.51-6.56-42.8-.15-1.05-.27-2.1-.41-3.15-.99-7.62-1.64-15.29-2.45-22.93-.58-5.44-.92-10.92-1.74-16.33-1.3-8.55-3.91-17.03-4.16-25.59-.34-11.55,1.54-23.16,1.52-34.74-.03-13.35-.77-26.73-1.81-40.05-.97-12.42-2.47-24.82-4.24-37.16-1.64-11.44-1.11-22.61,2.54-33.56,4.1-12.31,8.82-24.43,12.46-36.87,3.06-10.44,5.19-21.17,7.3-31.85,1.7-8.62,3.16-17.32,4.04-26.05,1.66-16.49,3.11-33.01,4.13-49.55,.81-13.28,.78-26.61,1.25-39.91,.17-4.81,.54-9.63,1.12-14.4,1.99-16.37,5.1-32.68,5.93-49.1,1.04-20.78,.43-41.66,.17-62.49-.11-8.61-.87-17.25-1.86-25.81-1.19-10.33-2.84-20.61-4.47-30.88-2.27-14.33-4.78-28.62-7.06-42.94-2.15-13.54-4.31-27.09-6.16-40.67-2.41-17.71-3.68-35.61-6.95-53.14-4.04-21.68-10.06-42.98-14.39-64.61-2.75-13.76-4.16-27.81-5.83-41.77-.74-6.2-.9-12.5-.87-18.76,.04-8.71,.65-17.41,.72-26.12,.03-3.61-.6-7.24-1.09-10.84-.83-6.07-1.48-12.19-2.77-18.17-2.36-10.99-6.15-21.77-7.45-32.86-1.46-12.48-1.91-25.3-.79-37.79,1.11-12.35-1.54-24.8,2.69-37.14,4.32-12.63,6.61-25.95,10.02-38.91,4.11-15.66,8.47-31.27,12.71-46.9,1.31-4.82,2.59-9.64,4.08-15.21,1.14,1.28,1.7,1.69,1.97,2.24,5.47,11.16,11.35,22.15,16.25,33.56,8.05,18.76,15.49,37.79,23.13,56.73,1.67,4.14,3.2,8.35,4.55,12.61,1.55,4.87,3.84,9.78,4.04,14.75,.43,10.59-1.58,21.38-.28,31.81,2.99,23.96,10.68,46.85,20.7,68.69,9.87,21.52,21.21,42.36,32.06,63.42,3.03,5.88,6.12,11.83,9.98,17.17,11.34,15.69,20.08,32.73,27.26,50.6,3.36,8.35,6.33,16.86,9.36,25.33,5.12,14.31,10.6,28.51,15.06,43.02,1.13,3.68,2.02,7.39,2.73,11.15,1.39,7.38,2.02,14.92,2.03,22.66,.01,12.14,2.79,24.27,4.44,36.4,.54,4,1.07,8.02,2.03,11.93,.03,.1,.04,.21,.07,.32,2.56,10.12,5.33,20.18,8.13,30.24,1.59,5.71,3.47,11.33,5.1,17.02,3.71,12.96,8.67,25.58,8.64,39.46-.04,17.62,.32,35.26,1.14,52.86,.32,6.79-.06,14.03,4.22,20.14,3.47,4.95,8.95,10.44,16.45,8.92,6.03-1.22,9.39-5.34,10.07-11.26,.77-6.72,.89-13.51,1.47-20.26,.45-5.35,1.16-10.68,1.76-16.02l1.71-.02c1.2,5.91,1.9,11.98,3.7,17.7,5.23,16.56,10.86,33,16.41,49.46,2.45,7.27,12.79,11.47,19.99,8.65,8.22-3.22,10.58-10.48,10.13-17.59-.65-10.11-3.47-20.09-5.41-30.11-1.22-6.29-2.52-12.57-3.78-18.85,.44-.11,.88-.21,1.32-.32,4.26,9.58,8.62,19.11,12.77,28.74,3.91,9.07,6.04,19.09,13.25,26.38,3.01,3.05,6.75,6.49,10.67,7.3,8.64,1.78,21.63-6.27,19.71-18.45-.36-2.3-.43-4.68-1.08-6.9-4.33-14.58-8.78-29.13-13.2-43.68-.63-2.07-1.26-4.13-1.89-6.2,.51-.2,1.02-.41,1.53-.61,2.7,4.12,5.41,8.24,8.1,12.37,5.23,8.02,9.8,16.59,15.89,23.89,5.73,6.88,13.93,9.79,21.37,4.72,5.7-3.89,8.65-12.04,5.9-20.32-2.9-8.75-6.09-17.45-9.75-25.91-3.29-7.6-7.18-14.95-11.18-22.21-5.48-9.94-13.77-18.22-16.87-29.61-1.9-6.99-4.74-13.72-6.86-20.66-1.06-3.46-1.46-7.12-2.16-10.68l1.83-1.04c3.06,4.09,6.66,7.88,9.07,12.31,6.95,12.8,18.17,20.51,30.85,26.28,8.6,3.92,17.05,.59,22.37-7.61,3.71-5.72,1.67-12.87-4.02-19.8Z"/><g id="b"><path class="d" d="M823.36,2200.14c1.65-13.13,3.05-26.3,4.69-39.43l-97.96,.31c1.02,7.97,1.69,15.99,2.01,24.07,.08,2.09,.66,4.16,.71,6.24,.06,3,.16,6.01,.22,9.02h90.31c0-.07,.02-.13,.03-.2Z"/><path class="d" d="M836.26,2359.87c-4.71-8.01-8.77-16.43-13.74-24.27-3.29-5.2-3.15-10.62-.94-15.24,9.54-19.96,4.63-39.87,1.23-59.99-1.75-10.39-3.3-20.98-3.23-31.47,.07-9.53,2.53-19.03,3.75-28.57h-90.31c.07,3.78,.08,7.56-.15,11.32-.2,3.34-2.75,6.59-2.72,9.87,.13,14.37-6.89,26.37-11.92,39.1-2.94,7.44-6.35,15.38-6.38,23.1-.04,10.41,2.05,21.11,4.98,31.17,2.09,7.18,1.68,14.02,1.6,21.07-.02,1.95-.81,3.89-.77,5.83,.22,9.82,1.39,19.43,4.63,28.58h124.71c-1.74-1.69-3.54-3.34-5.41-4.94-1.94-1.67-4.05-3.41-5.32-5.57Z"/><path class="d" d="M530.81,2161.86c.01-.08,.02-.15,.03-.23l-99.27,.31c.31,2.43,.63,4.86,.95,7.29,1.4,10.38,3.1,20.74,4.56,31.11h89.93c1.16-12.84,2.07-25.72,3.8-38.48Z"/><path class="d" d="M536.15,2246.41c-6.35-12.94-5.04-27.48-9.43-40.76-.2-.6-.07-1.33,0-1.99,.1-1.1,.2-2.21,.3-3.31h-89.93c1.04,7.39,1.96,14.78,2.55,22.21,.92,11.62-.28,23.5-1.57,35.16-1.14,10.31-4.16,20.41-5.53,30.71-1.47,11.05,2.02,21.42,5.57,31.82,1.4,4.09,1.56,9.53,.04,13.48-2.84,7.34-7.06,14.21-11.24,20.94-2.45,3.95-5.59,7.62-9.01,10.79-1.74,1.62-3.45,3.26-5.1,4.94h125.11c.07-.2,.14-.4,.2-.6,2.98-9.82,5.75-19.83,4.51-30.21-1.05-8.78-1.36-17.22,1.13-25.95,2.19-7.67,3.04-15.77,3.85-23.75,.53-5.28,1.11-11.02-.38-15.93-2.88-9.43-6.71-18.67-11.07-27.54Z"/></g></svg>