<?xml version="1.0" encoding="utf-8"?>
<!-- Generator: Adobe Illustrator 26.2.1, SVG Export Plug-In . SVG Version: 6.00 Build 0)  -->
<svg version="1.1" id="a" xmlns="http://www.w3.org/2000/svg" xmlns:xlink="http://www.w3.org/1999/xlink" x="0px" y="0px"
	 viewBox="0 0 1288 2512" style="enable-background:new 0 0 1288 2512;" xml:space="preserve">
<style type="text/css">
	.st0{fill:#F26E22;}
	.st1{display:none;fill:#D2D2D2;}
	.st2{fill:#D2D2D2;}
</style>
<path class="st0" d="M588.6,1595.2c1.1-4.4,0.9-9.1,1.8-13.5c3.7-17.8,7.7-35.6,11.5-53.4c3.1-14.8,5.9-29.7,8.8-44.6
	c3.4-17.1,6.9-34.2,10.2-51.3c1.8-9.2,3.3-18.4,4.8-27.7c1.1-7.1,2.5-14.2,2.9-21.4c0.5-9,0.4-18,0-27c-0.1-3.6-0.4-7.2-0.8-10.8
	H380.1c0,10.7,0.2,21.4,0.4,32.1c0.1,7.8,0.7,15.5,1.7,23.2c1.2,9.6,3.8,19.1,4.4,28.7c1.1,18.9,1.1,37.9,1.9,56.8
	c0.5,11.8,0.9,23.6,2.6,35.3c2.2,15,5.5,29.9,8.6,44.8c2.5,11.9,5.5,23.7,8.6,35.4c1,3.8,3.4,7.3,4.5,11.2c3,10.5,6.6,20.9,7,31.8
	h163.8C588.6,1628.8,584.7,1611.5,588.6,1595.2L588.6,1595.2z"/>
<g>
	<path class="st1" d="M412.8,1613c1,3.3,2,6.6,2.9,9.9C414.7,1619.6,413.7,1616.3,412.8,1613c-1.1-3.9-3.4-7.4-4.5-11.2
		c-1.5-5.9-3.1-11.8-4.5-17.6c1.5,5.9,3,11.8,4.5,17.7C409.3,1605.7,411.7,1609.2,412.8,1613z"/>
	<path class="st1" d="M416.3,1625c-0.2-0.6-0.3-1.2-0.5-1.7C415.9,1623.9,416.1,1624.5,416.3,1625z"/>
	<path class="st1" d="M416.8,1627.1c-0.1-0.3-0.1-0.6-0.2-0.8C416.7,1626.5,416.7,1626.8,416.8,1627.1z"/>
	<path class="st1" d="M380.2,1357.7c0-3.5-0.1-6.9-0.1-10.4C380.1,1350.7,380.2,1354.2,380.2,1357.7z"/>
	<path class="st2" d="M582.6,1647.8c5.5-14.2,3.1-29.4,4.7-44.2c-1.5,13.8,0.5,27.9-3.6,41.2H419.8c0.1,3,0,6-0.4,9.1
		c-0.1,0.5,0.2,1,0.2,1.5c-0.1,3.3,0.2,6.6-0.4,9.8c-1.3,6.8-4,13.4-4.6,20.2c-1.2,15.1-1.9,30.2-2.1,45.4
		c-0.1,9.9,1.4,19.8,1.8,29.7c0.5,12.5-1.2,24.7-3.7,36.9c-2.5,12.6-3.5,25.6-5.1,38.4c-0.1,0.5-0.1,1.1-0.2,1.6
		c-0.5,3.8-0.5,7.6-1.3,11.3c-4.1,17.2-5.5,34.8-5.7,52.4c-0.2,15.4,0.2,30.9,1.1,46.3c1.1,16.8,2.7,33.6,4.8,50.4
		c1.8,13.7,4.7,27.3,7,40.9c1.5,8.9,2.9,17.9,4.6,26.8c3.1,16.4,6.8,32.6,9.5,49.1c2.9,18.2,4.8,36.5,7.3,54.8
		c1.4,10.4,3.1,20.7,4.6,31.1c1,7.4,2,14.8,2.5,22.2c0.9,11.6-0.3,23.5-1.6,35.2c-1.1,10.3-4.2,20.4-5.5,30.7
		c-1.5,11.1,2,21.4,5.6,31.8c1.4,4.1,1.6,9.5,0,13.5c-2.8,7.3-7.1,14.2-11.2,20.9c-2.5,3.9-5.6,7.6-9,10.8
		c-10.9,10.1-20.3,21.2-23.9,35.8c-1.7,7-1.4,14.4-2,21.7c-0.1,1.9-0.4,4,0.1,5.7c3.2,10,11,15.5,19.9,19.8c1.9,0.9,3.9,1.7,6,2.1
		c5,1,10.1,1.8,15.1,2.7c2.6,0.5,5.2,0.9,7.7,1.6c3.1,0.8,6.5,1.2,9,2.9c6.4,4.3,13.3,4.3,19.8,1.8c4.5-1.7,7.3-2.3,11.5,1.1
		c7,5.7,22.7,3.9,31.5-1.7c10.6-6.8,17.9-16.2,23.2-27.2c3.1-6.5,8.2-12.7,6.6-20.8c-1.2-5.7-2.3-11.5-4-17.1
		c-1.3-4.1-5.2-7.9-5.2-11.8c-0.1-4.1,3.5-8,4.8-12.3c3-9.8,5.8-19.8,4.5-30.2c-1-8.8-1.4-17.2,1.1-25.9c2.2-7.7,3-15.8,3.8-23.8
		c0.5-5.3,1.1-11-0.4-15.9c-2.9-9.4-6.7-18.7-11.1-27.5c-6.3-12.9-5-27.5-9.4-40.8c-0.2-0.6-0.1-1.3,0-2c0.1-1.1,0.2-2.2,0.3-3.3
		c1.2-12.8,2.1-25.7,3.8-38.5c2.4-17.6,4.9-35.2,8.6-52.6c3-14.6,7.8-28.9,11.7-43.3c0.9-3.2,1-6.9,2.8-9.4c5.1-7.5,7-15.8,8.6-24.5
		c4.5-24.9,5.1-49.9,4.5-75c-0.2-8.4-1.1-16.9-2.1-25.3c-1.4-11.4-3.1-22.7-4.9-34c-1.2-7.8-2.7-15.7-4.2-23.5
		c-1.7-9.2-4.2-18.3-4.9-27.5c-0.3-3.7-0.4-7.3-0.4-10.9c0.1-12.2,1.9-24.3,4.9-36.1c2.2-8.6,5.5-16.9,8.2-25.4
		c3.3-10.5,6.3-21.1,9.6-31.5c2.6-8,4.4-15.8,2.6-24.3c-1.2-5.7-1.7-11.6-2-17.4c-0.1-2.2,1.6-4.5,1.8-6.8
		C576.6,1678.6,576.7,1662.9,582.6,1647.8z"/>
	<path class="st1" d="M587.7,1600.3c-0.1,0.9-0.3,1.9-0.4,2.8C587.4,1602.2,587.5,1601.2,587.7,1600.3z"/>
	<path class="st1" d="M588.2,1597c-0.2,0.9-0.4,1.9-0.5,2.8C587.9,1598.9,588.1,1598,588.2,1597z"/>
	<path class="st1" d="M417.3,1628.9c0-0.1,0-0.2-0.1-0.2C417.2,1628.7,417.3,1628.8,417.3,1628.9z"/>
	<path class="st2" d="M1232.8,1273.4L1232.8,1273.4c-9.5-11.6-18-23.8-27.4-35.4c-7-8.8-10.4-20.2-21-26.4
		c-7.8-4.6-14.2-11.6-21.9-16.3c-5-3-10.1-5.7-15.3-8.3c-6.4-3.3-12.9-6.5-19.3-9.9c-1.9-1-3.8-3.1-4.5-5
		c-4.2-12.5-8.1-25.1-11.9-37.8c-0.5-1.6-1-3.2-1.5-4.8c-6.8-22.1-14.1-44.1-19.9-66.5c-6.6-25.7-14.6-51.2-17-77.9
		c-1.4-15.5-5-30.7-7-46.1c-3-23.5-6.3-46.9-16.3-68.8c-6-13.1-10.9-26.8-18.2-39.1c-7.6-12.9-17.1-24.8-26.5-36.5
		c-9.1-11.2-15.4-23.6-18.1-37.5c-3-15.6-4.3-31.4-6.8-47.1c-1.9-11.9-3.2-24.1-7-35.4c-6.3-18.6-9-37.3-6.1-56.7
		c2.8-18.6,4.8-37.3,4-56.1c-0.9-18.7-4.8-36.9-11.5-54.4c-7.4-19.4-18.1-36.9-32-52.4c-12.7-14.1-27.9-25-45-32.9
		c-13.2-6.1-27.3-10.1-42-11.1c-5.7-0.4-11.3-1.5-17-1.4c-7.5,0.2-15.1,1.5-22.6,2.1c-1.1,0.1-2.4-0.3-3.4-0.8
		c-11.2-5.6-22.5-11.1-33.7-16.8c-16.8-8.6-32.5-18.9-45.6-32.5c-4.7-4.9-11-9.5-9.5-18.1c0.8-4.2,1.2-8.6,1-12.9
		c-0.7-14.5-0.2-28.9,2.9-43.2c2-9.2,5.6-18,5.4-27.8c-0.2-6.1,2.6-10.2,9.1-12.8c7.4-2.9,11.9-9.6,13.4-17.9
		c1.4-7.3,2.9-14.5,4.1-21.8c1.4-8.5,3.5-17,3.7-25.5c0.3-11-4.5-17.7-12.6-18.7c-4.6-0.6-4.7-2.9-4.8-6.4
		c-0.4-11.4-0.8-22.9-1.5-34.3c-0.8-13-4.3-25.4-8.7-37.6c-1.5-4.1-3-8.4-5.5-11.9c-17.1-24.2-40.7-38.1-69.9-40.5
		c-19.4-1.5-39.1-1.7-57.9,6.3c-26.3,11.2-45.1,28.5-52.5,57.1c-4.4,16.9-6.1,34.1-6.7,51.5c-0.2,4.8,0,9.6,0,14.6
		c-10.5,0.5-15.9,6-16.3,15.7c-0.3,6.5-0.2,13.1,0.8,19.6c1.3,8.3,4.5,16.3,5.2,24.6c1,13,6.3,22.3,18.5,27.3c2.9,1.2,4,2.9,4.3,5.8
		c0.6,5.4,1,10.9,2,16.2c2.2,11,4.9,21.9,7.2,32.9c0.7,3.3,0.7,6.9,0.7,10.3c0.1,9.8,0.3,19.5,0.1,29.2c-0.1,3.3-0.2,7.6-2.1,9.8
		c-6.3,7.2-13.1,14.1-20.5,20.2c-17.2,14-37.1,23.6-57,32.9c-4.9,2.3-9.6,5.4-15.8,4.9c-10.2-0.8-20.6-0.9-30.8-1
		c-4.1-0.1-8.3,0.2-12.4,1c-21.4,4.3-40.9,12.3-59,25.2c-21.1,15.1-35.9,34.9-47.1,57.4c-9.3,18.6-14.7,38.7-16.7,59.6
		c-2.3,24.2,1.4,48,3.8,71.9c1,10,2,20.1-1.1,30.1c-2.7,8.7-5.6,17.3-7.5,26.1c-2.6,12.2-4.6,24.7-6.4,37.1
		c-1.8,12.5-1.8,25.2-4.8,37.7c-4.3,17.8-14,32.4-24.8,46.6c-7.2,9.5-15.2,18.5-21.1,28.8c-6.7,11.7-11.7,24.4-17,36.8
		c-3.4,7.8-6.7,15.8-9,24c-2.5,9.1-4.2,18.4-5.6,27.7c-2.7,17.3-4.9,34.7-7.5,52c-1.9,12.9-3.5,25.9-6.2,38.7
		c-3.7,17.7-8,35.2-12.7,52.7c-3.9,14.5-8.8,28.7-13.1,43c-1.8,6.1-3.6,12.2-5.4,18.4c-4.1,13.8-8.1,27.7-12.3,41.5
		c-1,3.3-2.5,6.9-4.9,9.2c-2.3,2.3-6.1,3-9.2,4.6c-0.2,0.1-0.5,0.2-0.7,0.4c-9.2,4.8-18.7,9.3-27.5,14.9
		c-7.5,4.7-13.9,11.2-21.4,16.1c-4.6,3-8.2,6.4-10.9,11c-11.2,18.7-24.2,36-38.6,52.3c-4.6,5.2-5.7,12.9-2.5,17.8
		c4.9,7.5,13.6,12,20.3,9.1c13.4-5.8,25.4-13.5,33-26.8c2.6-4.6,6.1-8.7,9.2-13.1c0.6,0.3,1.3,0.7,1.9,1c-1.4,5.3-2.6,10.7-4.3,15.9
		c-3.8,11.6-6.6,23.6-14.2,33.6c-12.3,16.2-19.7,35.1-27.2,53.7c-2.5,6.2-3.1,12.8-1,19.4c2.6,8.2,12.1,11.7,19.7,7.7
		c9-4.7,14.4-12.4,19.2-20.9c4-7,8.1-14,12.1-20.9c0.5,0.3,1,0.6,1.6,0.8c-0.9,2.6-1.8,5.1-2.6,7.7c-4.2,13.7-8.7,27.3-12.2,41.2
		c-1.3,5.1-2,11.6,0,16c5,10.7,19.6,15.9,29.6,3c5-6.4,7.9-13.6,10.9-20.9c4.5-11,9.5-21.8,14.2-32.6c1,1.3,1.2,2.3,1,3.2
		c-2.6,11.6-5.3,23.1-7.7,34.7c-0.7,3.4-1.4,7-0.9,10.3c0.8,5.8,1.6,12.1,7.3,15.4c9.7,5.8,21.4,1,24.9-9.9c4.7-14.6,9.5-29.3,14-44
		c1.9-6.3,3.2-12.9,4.8-19.3c1.6,4,2.4,8,2.8,12c0.8,8.5,1,17.2,2.2,25.6c0.7,5.2,6,8.7,11,8.8c9.2,0.2,18.1-8.2,18.5-18.1
		c0.9-19.3,1.6-38.5,2.3-57.8c0.4-10.4,0.2-20.6,4-30.7c4.4-11.7,6.5-24.2,10.8-36c5.4-14.8,7.9-30,9.8-45.3
		c1-7.7,1.8-15.4,2.7-23.1c0.8-6.9-0.2-14.1,1.4-20.7c1.4-6.2,3-12.4,4.7-18.6c2.2-8.1,4.6-16.2,7.3-24.2
		c4.6-14,10.1-27.7,15.7-41.3c4.7-11.3,9.5-22.6,15.2-33.3c6.2-11.6,13.9-22.4,20.6-33.8c5.3-9.2,10.3-18.6,15-28.1
		c7.7-15.6,15.8-31,22.2-47c6.5-16.3,12.5-33.1,16.1-50.3c2.8-13.1,1.6-27.1,2.2-40.7c0.1-1.9-0.5-4,0.2-5.6
		c4.3-11.7,8.9-23.4,13.4-35c6.7-17.3,13.1-34.8,20.3-51.9c4.1-9.7,9.4-18.9,14.9-29.6c1.1,3.7,2,6,2.6,8.5
		c6.1,22.4,12.4,44.8,18.1,67.3c4.3,17.1,9.8,34,8.7,52.2c-0.7,12.5,0.3,25.2,0.3,37.8c0,4,0.1,8.1-1,11.9
		c-5.3,19.9-10.2,39.9-11.3,60.7c-0.2,3.3-1.2,6.7-0.7,9.8c2.2,14.9,2.1,29.8-0.4,44.6c-2.7,16.3-5.9,32.6-9,48.9
		c-1.5,8.1-3.4,16.1-5,24.1c-3.5,17.3-7.2,34.5-10.1,51.9c-2,11.8-2.6,23.8-4.3,35.7c-1.8,13-4.2,25.9-6.2,38.9
		c-1.8,11.8-2.5,23.8-5.4,35.3c-4.6,18-4.8,36.4-5.5,54.7c-0.4,10.3-0.5,20.6-0.5,30.9h247.8c0.3,3.6,0.6,7.2,0.8,10.8
		c0.3,9,0.5,18,0,27c-0.4,7.2-1.8,14.3-2.9,21.4c-1.5,9.3-3,18.5-4.8,27.7c-3.3,17.1-6.8,34.2-10.2,51.3
		c-2.9,14.9-5.8,29.8-8.8,44.6c-3.7,17.8-7.7,35.6-11.5,53.4c-0.9,4.4-0.7,9.1-1.8,13.5l0,0c-0.1,0.5-0.2,1-0.3,1.5
		c0.1-0.5,0.2-1,0.3-1.5c1.1-4.4,0.9-9.1,1.8-13.5c3.7-17.8,7.7-35.6,11.5-53.4c3.1-14.8,5.9-29.7,8.8-44.6
		c3.4-17.1,6.9-34.2,10.2-51.3c1.8-9.2,3.3-18.4,4.8-27.7c1.1-7.1,2.5-14.2,2.9-21.4c0.5-9,0.4-18,0-27c-0.3-8.4-1.5-16.8-1.8-25.2
		c-0.3-8.3-0.1-16.6-0.1-25.4c1.5,0,3.7-0.3,5.8,0.1c1,0.2,2.5,1.7,2.6,2.7c0.3,2.8,0,5.7-0.2,8.5c-0.5,6.3-1.5,12.5-1.7,18.8
		c-0.1,3.2-0.2,6.5-0.2,9.7h247c0.1,10.7,0,21.4-0.6,32.1c-0.8,16.4-3.9,32.7-5.9,49.1c-0.6,4.8-1,9.6-1.1,14.4
		c-0.5,13.3-0.4,26.6-1.2,39.9c-1,16.5-2.5,33.1-4.1,49.6c-0.9,8.7-2.3,17.4-4,26.1c-2.1,10.7-4.2,21.4-7.3,31.8
		c-3.6,12.4-8.4,24.6-12.5,36.9h0c-2.1,6.4-3.2,12.8-3.4,19.4H678.1c0.6,3.1,1.4,6.2,2.3,9.4c4.2,14.8,4.7,30.8,6.7,46.2
		c0.1,0.9-0.3,1.9-0.5,2.9c-0.4,2.1-1.1,4.1-1.3,6.2c-0.5,4.4-1,8.9-0.9,13.3c0,4.8-0.1,9.9,1.2,14.5c3.1,10.9,7.2,21.5,10.6,32.3
		c3.5,10.8,7.4,21.6,9.9,32.6c2.5,11.2,4.1,22.4,4.2,33.7c0.1,9.2-0.8,18.5-3,27.8c-1.3,5.2-3.1,10.3-4,15.6c-2.1,12-4,24-5.5,36.1
		c-1.8,15.3-4,30.6-4.4,46c-0.4,17.1,0.5,34.2,1.8,51.2c0.9,10.8,3.2,21.6,5.7,32.2c1.6,6.5,5.4,12.3,7.3,18.8
		c4.4,14.8,8.6,29.8,12.3,44.8c2,8.2,2.1,16.8,4.1,25c4.3,17.1,6.6,34.4,7.3,51.9c0.1,2.1,0.7,4.2,0.7,6.2c0.1,3,0.2,6,0.2,9
		c0.1,3.8,0.1,7.6-0.2,11.3c-0.2,3.3-2.8,6.6-2.7,9.9c0.1,14.4-6.9,26.4-11.9,39.1c-2.9,7.4-6.3,15.4-6.4,23.1c0,10.4,2,21.1,5,31.2
		c2.1,7.2,1.7,14,1.6,21.1c0,1.9-0.8,3.9-0.8,5.8c0.3,13,2.2,25.7,8.5,37.4c0.8,1.5,0.7,4.1-0.1,5.6c-6.3,12.9-11.7,25.7-4.9,40.4
		c7.5,16.1,16.5,30.7,34,37.1c8.5,3.1,17.9,3.5,25.4-3.2c2.8-2.5,4.7-2.3,7.3-0.8c5.9,3.2,13.1,4.2,18.2,1.1
		c6.6-4,13.7-4.1,20.5-6.2c2.1-0.6,4.1-1.3,6.2-1.8c2.4-0.5,5-0.4,7.3-1.1c4.2-1.3,8.2-2.9,12.3-4.6c1.2-0.5,2-1.9,3.2-2.2
		c8.2-2.4,10.9-10,11.9-16.4c1.3-8.3,0.2-17.3-1.7-25.5c-3.4-14.9-12.9-26.2-24.3-36.1c-1.9-1.7-4-3.4-5.3-5.6
		c-4.7-8-8.8-16.4-13.7-24.3c-3.3-5.2-3.2-10.6-0.9-15.2c9.5-20,4.6-39.9,1.2-60c-1.8-10.4-3.3-21-3.2-31.5c0.1-9.5,2.5-19,3.8-28.6
		c0-0.1,0-0.1,0-0.2c2.1-16.8,3.8-33.7,6.2-50.5c2.4-17.1,5.2-34,8.1-51c3.3-19.2,7.1-38.4,10.5-57.6c2.7-14.8,5.7-29.5,7.6-44.4
		c2.5-18.5,5-37.1,5.8-55.8c0.8-19.7,0.2-39.6-1.1-59.3c-1-14.3-4.5-28.5-6.6-42.8c-0.2-1.1-0.3-2.1-0.4-3.2
		c-1-7.6-1.6-15.3-2.5-22.9c-0.6-5.4-0.9-10.9-1.7-16.3c-1.3-8.6-3.9-17-4.2-25.6c-0.3-11.6,1.5-23.2,1.5-34.7
		c0-13.3-0.8-26.7-1.8-40.1c-1-12.4-2.5-24.8-4.2-37.2c-1.6-11.4-1.1-22.6,2.5-33.6c4.1-12.3,8.8-24.4,12.5-36.9
		c3.1-10.4,5.2-21.2,7.3-31.8c1.7-8.6,3.2-17.3,4-26.1c1.7-16.5,3.1-33,4.1-49.6c0.8-13.3,0.8-26.6,1.2-39.9
		c0.2-4.8,0.5-9.6,1.1-14.4c2-16.4,5.1-32.7,5.9-49.1c1-20.8,0.4-41.7,0.2-62.5c-0.1-8.6-0.9-17.2-1.9-25.8
		c-1.2-10.3-2.8-20.6-4.5-30.9c-2.3-14.3-4.8-28.6-7.1-42.9c-2.2-13.5-4.3-27.1-6.2-40.7c-2.4-17.7-3.7-35.6-7-53.1
		c-4-21.7-10.1-43-14.4-64.6c-2.8-13.8-4.2-27.8-5.8-41.8c-0.7-6.2-0.9-12.5-0.9-18.8c0-8.7,0.7-17.4,0.7-26.1
		c0-3.6-0.6-7.2-1.1-10.8c-0.8-6.1-1.5-12.2-2.8-18.2c-2.4-11-6.2-21.8-7.5-32.9c-1.5-12.5-1.9-25.3-0.8-37.8
		c1.1-12.4-1.5-24.8,2.7-37.1c4.3-12.6,6.6-25.9,10-38.9c4.1-15.7,8.5-31.3,12.7-46.9c1.3-4.8,2.6-9.6,4.1-15.2
		c1.1,1.3,1.7,1.7,2,2.2c5.5,11.2,11.3,22.2,16.2,33.6c8,18.8,15.5,37.8,23.1,56.7c1.7,4.1,3.2,8.3,4.5,12.6c1.5,4.9,3.8,9.8,4,14.8
		c0.4,10.6-1.6,21.4-0.3,31.8c3,24,10.7,46.9,20.7,68.7c9.9,21.5,21.2,42.4,32.1,63.4c3,5.9,6.1,11.8,10,17.2
		c11.3,15.7,20.1,32.7,27.3,50.6c3.4,8.3,6.3,16.9,9.4,25.3c5.1,14.3,10.6,28.5,15.1,43c1.1,3.7,2,7.4,2.7,11.2
		c1.4,7.4,2,14.9,2,22.7c0,12.1,2.8,24.3,4.4,36.4c0.5,4,1.1,8,2,11.9c0,0.1,0,0.2,0.1,0.3c2.6,10.1,5.3,20.2,8.1,30.2
		c1.6,5.7,3.5,11.3,5.1,17c3.7,13,8.7,25.6,8.6,39.5c0,17.6,0.3,35.3,1.1,52.9c0.3,6.8-0.1,14,4.2,20.1c3.5,4.9,8.9,10.4,16.4,8.9
		c6-1.2,9.4-5.3,10.1-11.3c0.8-6.7,0.9-13.5,1.5-20.3c0.4-5.3,1.2-10.7,1.8-16l1.7,0c1.2,5.9,1.9,12,3.7,17.7
		c5.2,16.6,10.9,33,16.4,49.5c2.4,7.3,12.8,11.5,20,8.7c8.2-3.2,10.6-10.5,10.1-17.6c-0.7-10.1-3.5-20.1-5.4-30.1
		c-1.2-6.3-2.5-12.6-3.8-18.8c0.4-0.1,0.9-0.2,1.3-0.3c4.3,9.6,8.6,19.1,12.8,28.7c3.9,9.1,6,19.1,13.2,26.4c3,3.1,6.8,6.5,10.7,7.3
		c8.6,1.8,21.6-6.3,19.7-18.4c-0.4-2.3-0.4-4.7-1.1-6.9c-4.3-14.6-8.8-29.1-13.2-43.7c-0.6-2.1-1.3-4.1-1.9-6.2
		c0.5-0.2,1-0.4,1.5-0.6c2.7,4.1,5.4,8.2,8.1,12.4c5.2,8,9.8,16.6,15.9,23.9c5.7,6.9,13.9,9.8,21.4,4.7c5.7-3.9,8.7-12,5.9-20.3
		c-2.9-8.8-6.1-17.4-9.8-25.9c-3.3-7.6-7.2-14.9-11.2-22.2c-5.5-9.9-13.8-18.2-16.9-29.6c-1.9-7-4.7-13.7-6.9-20.7
		c-1.1-3.5-1.5-7.1-2.2-10.7l1.8-1c3.1,4.1,6.7,7.9,9.1,12.3c6.9,12.8,18.2,20.5,30.8,26.3c8.6,3.9,17.1,0.6,22.4-7.6
		C1240.5,1287.5,1238.5,1280.3,1232.8,1273.4z"/>
</g>
<path class="st0" d="M843.1,1625.4c4.1-12.3,8.8-24.4,12.5-36.9c3.1-10.4,5.2-21.2,7.3-31.8c1.7-8.6,3.2-17.3,4-26.1
	c1.7-16.5,3.1-33,4.1-49.6c0.8-13.3,0.8-26.6,1.2-39.9c0.2-4.8,0.5-9.6,1.1-14.4c2-16.4,5.1-32.7,5.9-49.1
	c0.5-10.7,0.6-21.4,0.6-32.1h-247c-0.3,14.9-0.5,29.8-0.8,44.7c0,1.7,0.1,3.3,0.4,4.9c2.9,15,5.8,29.9,8.7,44.9
	c3.6,18.7,6.8,37.4,10.6,56.1c4.4,21.5,9.3,42.9,13.8,64.4c2.9,14,6.9,28,7.8,42.2c0.9,14.2,1.7,28.1,4.6,42.1h161.6
	C839.9,1638.2,841,1631.8,843.1,1625.4L843.1,1625.4z"/>
</svg>
