<svg id="body_Image" data-name="body Image" xmlns="http://www.w3.org/2000/svg" viewBox="0 0 1288 2512"><defs><style>.cls-1{fill:#d2d2d2;}.cls-2{fill:#f26e22;}</style></defs><path class="cls-1" d="M1232.7,1273.32c-9.42-11.49-18-23.7-27.28-35.28-7-8.75-10.43-20.16-21-26.43-7.79-4.61-14.15-11.63-21.93-16.27-5-3-10.15-5.68-15.34-8.33-6.44-3.28-12.94-6.46-19.31-9.88a10,10,0,0,1-4.46-5c-4.17-12.51-8.05-25.13-11.9-37.75-.49-1.6-1-3.19-1.48-4.78-6.84-22.13-14.14-44.14-19.91-66.54-6.62-25.73-14.61-51.17-17-77.92-1.39-15.45-5-30.69-7-46.11-3-23.54-6.3-46.93-16.31-68.77-6-13.09-10.94-26.8-18.23-39.12-7.63-12.88-17.06-24.8-26.54-36.46-9.09-11.18-15.42-23.59-18.07-37.49-3-15.56-4.31-31.42-6.8-47.08-1.89-11.89-3.19-24.09-7-35.39-6.31-18.62-9-37.3-6.08-56.66,2.82-18.62,4.85-37.27,4-56.11a174.41,174.41,0,0,0-11.51-54.39,167.71,167.71,0,0,0-32-52.35,137.35,137.35,0,0,0-45-32.87,120.9,120.9,0,0,0-42-11.15c-5.66-.41-11.32-1.55-16.95-1.37-7.55.23-15.07,1.46-22.62,2.15a6.72,6.72,0,0,1-3.37-.77c-11.24-5.55-22.5-11.05-33.65-16.78-16.77-8.63-32.47-18.87-45.6-32.52-4.73-4.93-11-9.48-9.45-18.08a56.57,56.57,0,0,0,1-12.85c-.73-14.53-.15-28.95,2.94-43.2,2-9.21,5.63-18,5.36-27.75-.17-6.06,2.57-10.18,9.13-12.81,7.36-3,11.91-9.66,13.44-17.86,1.36-7.28,2.91-14.54,4.14-21.84,1.44-8.47,3.47-17,3.71-25.48.31-11-4.54-17.74-12.56-18.74-4.58-.58-4.73-2.93-4.84-6.38-.38-11.42-.77-22.85-1.51-34.26-.84-13-4.29-25.42-8.71-37.59-1.49-4.11-3-8.4-5.5-11.93C698.4,48.93,674.77,35,645.53,32.64c-19.38-1.54-39.06-1.7-57.87,6.31C561.37,50.15,542.53,67.44,535.13,96c-4.38,17-6.1,34.11-6.71,51.47-.17,4.78,0,9.57,0,14.61-10.5.53-15.89,6-16.34,15.72a100,100,0,0,0,.8,19.57c1.26,8.28,4.55,16.33,5.18,24.62,1,13,6.35,22.33,18.45,27.29a6.22,6.22,0,0,1,4.35,5.76c.57,5.41.95,10.88,2,16.2,2.2,11,4.92,21.89,7.17,32.87a55.29,55.29,0,0,1,.74,10.31c.13,9.74.28,19.5.06,29.24-.07,3.32-.15,7.57-2.08,9.75a180.93,180.93,0,0,1-20.51,20.18c-17.16,14-37.07,23.6-57,32.93-4.92,2.31-9.59,5.43-15.76,4.93-10.24-.82-20.56-.87-30.84-1a59.65,59.65,0,0,0-12.38,1c-21.4,4.27-40.94,12.28-59,25.23-21.06,15.12-35.86,34.95-47.15,57.41a167.84,167.84,0,0,0-16.71,59.58c-2.32,24.18,1.38,48,3.83,71.89,1,10,2,20.11-1.09,30.06-2.71,8.65-5.6,17.29-7.48,26.14-2.61,12.25-4.63,24.65-6.37,37.06s-1.79,25.2-4.84,37.69c-4.35,17.83-14,32.44-24.76,46.64-7.21,9.48-15.17,18.56-21.06,28.81-6.7,11.67-11.66,24.37-17,36.78a191.62,191.62,0,0,0-9,24A243.33,243.33,0,0,0,196,920.57c-2.71,17.3-5,34.67-7.52,52-1.92,12.92-3.53,25.92-6.23,38.68-3.73,17.67-8,35.24-12.72,52.68-3.89,14.47-8.8,28.66-13.1,43q-2.73,9.18-5.43,18.37c-4.07,13.85-8.1,27.71-12.29,41.52-1,3.29-2.5,6.87-4.87,9.18s-6.14,3-9.19,4.58l-.7.36c-9.24,4.83-18.7,9.32-27.49,14.86-7.54,4.74-13.94,11.26-21.4,16.14a33.57,33.57,0,0,0-10.89,11,351.55,351.55,0,0,1-38.59,52.28c-4.64,5.25-5.67,12.9-2.48,17.85,4.85,7.52,13.6,12,20.29,9.08,13.4-5.8,25.42-13.53,33-26.75,2.64-4.6,6.11-8.72,9.21-13.05l1.92,1c-1.42,5.29-2.61,10.66-4.3,15.87-3.77,11.58-6.62,23.57-14.2,33.55-12.34,16.25-19.68,35-27.16,53.74a28.21,28.21,0,0,0-1,19.41c2.63,8.21,12.1,11.66,19.69,7.7,9-4.7,14.41-12.45,19.17-20.93,4-7,8.06-14,12.1-21l1.56.82c-.88,2.56-1.85,5.1-2.63,7.69-4.18,13.7-8.69,27.32-12.24,41.18-1.3,5.07-2,11.56,0,16,5,10.71,19.56,15.89,29.61,3,5-6.36,7.87-13.61,10.87-21,4.47-11,9.44-21.76,14.2-32.63a3.67,3.67,0,0,1,1,3.19c-2.57,11.58-5.28,23.12-7.74,34.71-.71,3.37-1.37,7-.93,10.31.76,5.8,1.56,12.07,7.28,15.45,9.73,5.75,21.4,1,24.89-9.87,4.69-14.65,9.48-29.26,14-44,1.94-6.34,3.21-12.87,4.78-19.32a41.11,41.11,0,0,1,2.78,12c.8,8.54,1,17.16,2.23,25.63.73,5.15,6,8.67,11.05,8.79,9.23.2,18.06-8.15,18.55-18.14.94-19.26,1.61-38.54,2.32-57.81.38-10.37.2-20.62,4-30.75,4.37-11.71,6.55-24.25,10.85-36,5.39-14.76,7.86-30,9.75-45.33.94-7.69,1.75-15.41,2.7-23.1.85-6.87-.19-14.09,1.36-20.74q2.16-9.32,4.68-18.56,3.32-12.18,7.26-24.17c4.62-14,10.12-27.68,15.74-41.3a354.63,354.63,0,0,1,15.23-33.29c6.25-11.61,13.93-22.44,20.57-33.85,5.33-9.16,10.29-18.57,15-28.08,7.66-15.56,15.8-31,22.19-47,6.5-16.33,12.46-33.12,16.11-50.26,2.8-13.11,1.64-27.07,2.22-40.66.09-1.88-.45-4,.17-5.62,4.33-11.72,8.88-23.35,13.39-35,6.7-17.33,13.09-34.79,20.27-51.92,4.07-9.71,9.43-18.87,14.87-29.56,1.16,3.69,2,6.05,2.63,8.46,6.07,22.4,12.36,44.75,18.07,67.25,4.33,17.11,9.8,34,8.73,52.16-.73,12.54.28,25.17.34,37.76,0,4,.06,8.11-1,11.89C433.13,930,428.22,950,427.2,970.75c-.16,3.28-1.21,6.65-.73,9.82a141.52,141.52,0,0,1-.36,44.58c-2.72,16.33-5.86,32.59-8.95,48.86-1.53,8.07-3.44,16.07-5.05,24.13-3.45,17.29-7.17,34.54-10.11,51.91-2,11.79-2.62,23.81-4.28,35.67-1.82,13-4.2,25.94-6.2,38.92-1.81,11.77-2.48,23.81-5.39,35.29-4.57,18-4.79,36.41-5.55,54.68-.87,21-.35,42-.12,63a200.68,200.68,0,0,0,1.71,23.23c1.21,9.6,3.82,19.07,4.4,28.68,1.12,18.91,1.09,37.88,1.87,56.82.48,11.78.87,23.64,2.57,35.28,2.19,15,5.45,29.92,8.64,44.79,2.55,11.87,5.54,23.66,8.65,35.41,1,3.84,3.35,7.33,4.45,11.16,3.83,13.35,8.6,26.58,6.59,40.89-.07.47.2,1,.19,1.47-.1,3.26.19,6.61-.43,9.77-1.34,6.79-4,13.42-4.6,20.24-1.25,15.09-1.92,30.25-2.06,45.39-.08,9.88,1.4,19.75,1.81,29.65.5,12.46-1.22,24.67-3.7,36.94-2.55,12.64-3.52,25.59-5.06,38.42-.06.53-.12,1.06-.19,1.59-.46,3.76-.45,7.62-1.31,11.28-4.08,17.24-5.51,34.8-5.74,52.41-.21,15.44.14,30.92,1.11,46.32,1.06,16.82,2.69,33.64,4.84,50.36,1.76,13.7,4.67,27.27,7,40.9,1.55,8.91,2.89,17.87,4.57,26.76,3.1,16.37,6.83,32.63,9.45,49.07,2.91,18.19,4.82,36.54,7.27,54.8,1.4,10.38,3.1,20.74,4.56,31.11,1,7.39,2,14.78,2.55,22.21.92,11.61-.27,23.5-1.56,35.15-1.14,10.32-4.16,20.41-5.53,30.71-1.47,11.06,2,21.42,5.57,31.82a21.29,21.29,0,0,1,0,13.48c-2.84,7.34-7.06,14.21-11.24,20.94a53.16,53.16,0,0,1-9,10.79c-10.86,10.07-20.32,21.17-23.94,35.81-1.73,7-1.42,14.43-1.95,21.68-.14,1.9-.4,4,.15,5.72,3.15,10,11,15.53,19.89,19.84a25.52,25.52,0,0,0,6,2.12c5,1,10.07,1.77,15.1,2.67,2.59.47,5.2.9,7.74,1.56,3.08.81,6.51,1.22,9,2.91,6.43,4.28,13.28,4.29,19.83,1.78,4.5-1.73,7.3-2.32,11.53,1.09,7,5.67,22.73,3.91,31.52-1.7,10.58-6.75,17.92-16.24,23.23-27.22,3.14-6.49,8.23-12.7,6.58-20.77a159.45,159.45,0,0,0-4.05-17c-1.33-4.12-5.17-7.87-5.23-11.83s3.52-8,4.8-12.27c3-9.82,5.76-19.83,4.51-30.2-1-8.78-1.36-17.23,1.14-26,2.18-7.66,3-15.77,3.84-23.75.53-5.27,1.11-11-.38-15.93a186.89,186.89,0,0,0-11.07-27.53c-6.35-12.94-5-27.48-9.43-40.77a4.94,4.94,0,0,1,0-2l.3-3.31c1.16-12.84,2.07-25.72,3.79-38.48,2.39-17.62,4.94-35.25,8.58-52.64,3.05-14.6,7.76-28.86,11.73-43.27.88-3.18,1-6.87,2.81-9.44,5.14-7.46,7-15.77,8.56-24.47,4.5-24.86,5.11-49.92,4.45-75-.22-8.44-1.09-16.89-2.11-25.28-1.39-11.37-3.12-22.7-4.88-34-1.23-7.85-2.74-15.66-4.16-23.48-1.67-9.18-4.17-18.29-4.9-27.54-.29-3.65-.41-7.3-.39-10.94a149.55,149.55,0,0,1,4.93-36.13c2.21-8.59,5.54-16.9,8.2-25.38,3.28-10.48,6.26-21.06,9.64-31.5,2.57-8,4.39-15.83,2.57-24.32a110.62,110.62,0,0,1-2-17.44c-.12-2.22,1.63-4.48,1.77-6.77,1-15.69,1.07-31.38,7-46.47,6.55-16.84,1.9-35.21,6-52.5,1.06-4.41.87-9.1,1.8-13.55,3.71-17.81,7.74-35.57,11.45-53.39,3.09-14.83,5.9-29.72,8.85-44.58,3.39-17.08,6.88-34.15,10.18-51.25,1.78-9.2,3.32-18.45,4.8-27.7,1.14-7.12,2.49-14.25,2.89-21.42.49-9,.37-18,0-27-.32-8.42-1.51-16.81-1.85-25.23-.33-8.27-.07-16.56-.07-25.38a26.8,26.8,0,0,1,5.74.12,4,4,0,0,1,2.57,2.7,48,48,0,0,1-.19,8.47c-.53,6.26-1.55,12.49-1.72,18.76-.52,18.12-.74,36.26-1,54.39a24.74,24.74,0,0,0,.44,4.94c2.87,15,5.83,30,8.69,44.93,3.56,18.69,6.83,37.43,10.63,56.07,4.39,21.51,9.33,42.92,13.82,64.41,2.93,14,6.88,28,7.82,42.16,1.15,17.36,2,34.35,6.87,51.39,4.24,14.84,4.67,30.77,6.72,46.23a9,9,0,0,1-.47,2.9,60.83,60.83,0,0,0-1.3,6.16,124.15,124.15,0,0,0-.9,13.33c.06,4.85-.07,9.91,1.24,14.49,3.13,10.88,7.16,21.5,10.62,32.29s7.39,21.55,9.88,32.59a161.38,161.38,0,0,1,4.23,33.67,113.28,113.28,0,0,1-3,27.82c-1.26,5.21-3.09,10.32-4,15.59-2.07,12-4,24-5.46,36.07-1.83,15.28-4,30.6-4.4,46a490.11,490.11,0,0,0,1.85,51.25c.87,10.81,3.16,21.59,5.74,32.16,1.58,6.47,5.43,12.35,7.34,18.76,4.43,14.85,8.62,29.78,12.28,44.83,2,8.18,2.07,16.83,4.14,25a250.6,250.6,0,0,1,7.26,51.94c.09,2.09.67,4.16.71,6.24.06,3,.16,6,.22,9,.07,3.78.08,7.56-.15,11.32-.2,3.33-2.75,6.59-2.72,9.87.13,14.37-6.89,26.36-11.92,39.09-2.94,7.44-6.36,15.38-6.39,23.11,0,10.41,2,21.1,5,31.17,2.09,7.18,1.68,14,1.59,21.07,0,2-.81,3.89-.76,5.83.29,13,2.24,25.66,8.49,37.37a7,7,0,0,1-.08,5.6c-6.35,12.94-11.74,25.69-4.86,40.43,7.5,16.05,16.55,30.7,34,37.1,8.45,3.11,17.89,3.51,25.37-3.16,2.81-2.5,4.65-2.27,7.31-.83,5.93,3.21,13.07,4.2,18.23,1.05,6.58-4,13.68-4.15,20.46-6.24,2.07-.63,4.13-1.32,6.25-1.75,2.43-.5,5-.41,7.34-1.14,4.18-1.3,8.25-2.94,12.3-4.6,1.18-.48,2-1.85,3.21-2.19,8.24-2.38,10.93-10,11.93-16.38,1.28-8.26.21-17.28-1.68-25.55-3.42-14.89-12.92-26.25-24.33-36.07-2-1.67-4.06-3.41-5.33-5.57-4.71-8-8.76-16.42-13.73-24.26a15.25,15.25,0,0,1-.95-15.24c9.54-20,4.63-39.87,1.23-60-1.75-10.39-3.3-21-3.23-31.47.07-9.53,2.53-19,3.75-28.57l0-.2c2.11-16.81,3.8-33.69,6.14-50.47,2.38-17.05,5.16-34,8.09-51,3.33-19.22,7.07-38.36,10.54-57.56,2.66-14.76,5.65-29.49,7.64-44.35,2.47-18.52,5-37.12,5.77-55.75a541,541,0,0,0-1.13-59.31c-1-14.35-4.49-28.51-6.57-42.8-.15-1.05-.27-2.1-.41-3.16-1-7.61-1.64-15.28-2.45-22.93-.58-5.44-.92-10.92-1.74-16.33-1.3-8.55-3.91-17-4.16-25.58-.35-11.56,1.54-23.16,1.51-34.74,0-13.36-.77-26.73-1.81-40.05-1-12.43-2.47-24.82-4.24-37.16-1.65-11.44-1.11-22.61,2.54-33.56,4.1-12.31,8.82-24.43,12.46-36.87,3.06-10.44,5.19-21.17,7.3-31.86,1.71-8.61,3.16-17.31,4-26.05,1.67-16.49,3.12-33,4.13-49.55.81-13.28.78-26.6,1.25-39.9.17-4.81.54-9.63,1.12-14.41,2-16.37,5.1-32.68,5.93-49.1,1-20.78.42-41.66.16-62.49a253.43,253.43,0,0,0-1.86-25.81c-1.19-10.33-2.83-20.61-4.47-30.89-2.27-14.32-4.78-28.61-7.06-42.94-2.15-13.54-4.31-27.08-6.15-40.67-2.41-17.71-3.68-35.61-6.95-53.14-4-21.68-10.06-43-14.39-64.61-2.76-13.77-4.16-27.81-5.83-41.77a152.53,152.53,0,0,1-.87-18.76c0-8.71.64-17.41.71-26.12a76.42,76.42,0,0,0-1.09-10.84c-.83-6.08-1.48-12.2-2.77-18.18-2.36-11-6.15-21.76-7.45-32.85a185.81,185.81,0,0,1-.78-37.79c1.1-12.35-1.54-24.8,2.69-37.15,4.32-12.63,6.61-25.95,10-38.91,4.12-15.66,8.47-31.26,12.71-46.9,1.31-4.81,2.59-9.64,4.08-15.2a16.76,16.76,0,0,1,2,2.23c5.47,11.17,11.35,22.16,16.24,33.57,8.06,18.76,15.5,37.79,23.13,56.73q2.5,6.23,4.55,12.61c1.55,4.87,3.84,9.78,4,14.75.43,10.59-1.58,21.38-.28,31.8,3,24,10.69,46.85,20.71,68.7,9.86,21.51,21.21,42.35,32,63.41a131.38,131.38,0,0,0,10,17.17c11.34,15.69,20.07,32.73,27.26,50.61,3.36,8.35,6.33,16.85,9.36,25.33,5.12,14.31,10.6,28.51,15.06,43a102.78,102.78,0,0,1,2.73,11.14,122.21,122.21,0,0,1,2,22.66c0,12.13,2.79,24.27,4.44,36.4a114.28,114.28,0,0,0,2,11.93c0,.1,0,.21.07.31,2.56,10.12,5.33,20.19,8.13,30.24,1.58,5.71,3.47,11.33,5.09,17,3.71,13,8.67,25.59,8.64,39.46q0,26.44,1.14,52.87c.32,6.79-.06,14,4.22,20.14,3.47,5,9,10.44,16.45,8.92,6-1.22,9.4-5.34,10.07-11.26.77-6.72.9-13.51,1.47-20.25.45-5.35,1.16-10.68,1.76-16l1.7,0c1.21,5.91,1.9,12,3.71,17.7,5.22,16.56,10.85,33,16.41,49.45,2.45,7.28,12.78,11.47,20,8.65,8.22-3.22,10.59-10.48,10.13-17.59-.64-10.11-3.47-20.09-5.41-30.11-1.21-6.29-2.52-12.57-3.78-18.85l1.32-.32c4.27,9.57,8.62,19.11,12.77,28.74,3.91,9.06,6,19.09,13.25,26.38,3,3,6.75,6.49,10.66,7.3,8.65,1.78,21.63-6.27,19.71-18.45a52.45,52.45,0,0,0-1.08-6.9c-4.33-14.58-8.78-29.13-13.2-43.68-.62-2.07-1.26-4.14-1.89-6.2l1.53-.61q4,6.18,8.1,12.37c5.24,8,9.8,16.58,15.89,23.89,5.73,6.88,13.92,9.79,21.36,4.72,5.7-3.89,8.65-12,5.91-20.33-2.91-8.75-6.09-17.45-9.75-25.91-3.29-7.59-7.18-14.95-11.18-22.21-5.48-9.94-13.77-18.22-16.86-29.61-1.91-7-4.74-13.72-6.87-20.66a105.86,105.86,0,0,1-2.15-10.69l1.83-1c3,4.09,6.65,7.88,9.06,12.31,7,12.8,18.18,20.52,30.85,26.29,8.6,3.92,17.05.59,22.37-7.61C1240.43,1287.41,1238.39,1280.25,1232.7,1273.32Z"/><g id="ankles"><path class="cls-2" d="M823.36,2200.14c1.65-13.13,3-26.3,4.69-39.43l-98,.3q1.54,12,2,24.07c.09,2.09.67,4.16.71,6.24.06,3,.16,6,.22,9h90.31Z"/><path class="cls-2" d="M836.26,2359.87c-4.71-8-8.76-16.42-13.73-24.26a15.25,15.25,0,0,1-.95-15.24c9.54-20,4.63-39.87,1.23-60-1.75-10.39-3.3-21-3.23-31.47.07-9.53,2.53-19,3.75-28.57H733c.07,3.78.08,7.56-.15,11.32-.2,3.33-2.75,6.59-2.72,9.87.13,14.37-6.89,26.36-11.92,39.09-2.94,7.44-6.36,15.38-6.39,23.11,0,10.41,2,21.1,5,31.17,2.09,7.18,1.68,14,1.59,21.07,0,2-.81,3.89-.76,5.83.22,9.82,1.38,19.43,4.63,28.58H847q-2.61-2.53-5.4-4.94C839.64,2363.77,837.53,2362,836.26,2359.87Z"/></g></svg>